<?xml version="1.0" encoding="UTF-8"?>
<svg width="24" height="24" viewBox="0 0 24 24" fill="none" xmlns="http://www.w3.org/2000/svg">
  <path d="M3 12h18" stroke="#2563EB" stroke-width="2" stroke-linecap="round" stroke-linejoin="round"/>
  <path d="M4 12v9a1 1 0 0 0 1 1h14a1 1 0 0 0 1-1v-9" stroke="#2563EB" stroke-width="2" stroke-linecap="round" stroke-linejoin="round"/>
  <path d="M12 12v10" stroke="#2563EB" stroke-width="2" stroke-linecap="round" stroke-linejoin="round"/>
  <path d="M4 7a2 2 0 0 1 2-2c2 0 3 3 6 3s4-3 6-3a2 2 0 1 1 0 4H4a2 2 0 0 1 0-4Z" stroke="#2563EB" stroke-width="2" stroke-linecap="round" stroke-linejoin="round"/>
</svg>
